<?xml version="1.0" encoding="UTF-8" standalone="no"?>
<svg
   xmlns:dc="http://purl.org/dc/elements/1.1/"
   xmlns:cc="http://creativecommons.org/ns#"
   xmlns:rdf="http://www.w3.org/1999/02/22-rdf-syntax-ns#"
   xmlns:svg="http://www.w3.org/2000/svg"
   xmlns="http://www.w3.org/2000/svg"
   viewBox="0 0 120 120"
   id="svg16"
   version="1.1"
   height="120"
   width="120"
   y="0px"
   x="0px">
  <metadata
     id="metadata22">
    <rdf:RDF>
      <cc:Work
         rdf:about="">
        <dc:format>image/svg+xml</dc:format>
        <dc:type
           rdf:resource="http://purl.org/dc/dcmitype/StillImage" />
        <dc:title></dc:title>
      </cc:Work>
    </rdf:RDF>
  </metadata>
  <defs
     id="defs20" />
  <path
     d="m 113.92235,63.600075 c 5.82539,-5.736534 7.05703,-15.28493 5.39906,-23.000525 -0.0373,-0.173429 -0.0952,-0.339608 -0.17132,-0.495458 -0.22852,-0.467578 -0.6211,-0.843046 -1.11235,-1.047895 -0.14601,-0.0605 -2.47617,-1.018115 -5.84343,-1.669442 -1.76414,-0.341009 -3.81258,-0.598118 -5.98078,-0.598118 -0.75703,0 -1.49719,0.0312 -2.21953,0.0928 -3.13055,0.268359 -5.931565,1.116325 -8.361798,2.532648 -0.361172,0.210699 -4.027734,-1.579922 -4.646015,-1.762031 -1.516406,-0.446008 -3.065624,-0.783277 -4.63078,-1.005226 -3.886405,-0.551017 -7.871248,-0.397028 -11.702575,0.457968 -0.01359,0.003 -0.02719,0.006 -0.04078,0.01 -0.614062,0.137579 -1.224843,0.289219 -1.830702,0.462418 -0.327422,0.0937 -4.008515,-3.497564 -4.601483,-3.926232 -1.747969,-1.263514 -3.604453,-2.376079 -5.541093,-3.324825 -3.828046,-1.876171 -7.965935,-3.108736 -12.193356,-3.655303 -8.514139,-1.100385 -17.331559,0.623677 -24.722338,5.018657 -3.642655,2.16631 -6.919686,4.947397 -9.659295,8.180112 -2.850233,-7.608715 -1.98164,-16.224065 2.498906,-23.193643 1.041797,-1.620693 1.390312,-3.550294 0.981094,-5.432556 C 19.134566,9.360703 18.016363,7.75008 16.39566,6.708055 15.229176,5.957828 13.881755,5.5615 12.499646,5.5615 c -2.468203,0 -4.7381245,1.238665 -6.0719525,3.313115 -4.390311,6.829419 -6.60913895,14.728523 -6.41718595,22.844426 0.192188,8.115663 2.78203095,15.900857 7.48991995,22.514657 l 0.650859,0.914295 c -1.811015,7.049728 -1.211249,14.585094 -1.211249,21.814121 v 19.923418 7.512858 c 0,5.53615 4.5037495,10.04011 10.0401535,10.04011 5.536171,0 10.040154,-4.50373 10.040154,-10.04011 V 93.183829 h 17.719918 v 11.214561 c 0,5.53615 4.503749,10.04011 10.040154,10.04011 5.53617,0 10.040153,-4.50373 10.040153,-10.04011 V 93.183829 h 8.531014 v 11.214561 c 0,5.53615 4.503749,10.04011 10.040154,10.04011 5.53617,0 10.040154,-4.50373 10.040154,-10.04011 V 92.95532 c 0.0059,0.0413 5.767498,-1.569602 6.332342,-1.791791 3.382266,-1.330074 6.427726,-3.813963 8.718046,-6.60137 2.36062,-2.873197 4.03992,-6.281221 4.96007,-9.879805 0.46781,-1.829522 0.74039,-3.708493 0.81586,-5.594974 0.0295,-0.740147 -0.66258,-5.165127 -0.33586,-5.486925 z M 55.041256,31.930829 c -14.245668,95.619011 -7.122834,47.809507 0,0 z"
     id="path14-3"
     style="fill:#ff000f;fill-opacity:0.94117647" />
  <path
     style="fill:#000000"
     id="path2"
     d="m 72.45955,61.457895 -9.497107,-1.760612 c -1.17539,-0.216569 -2.30414,0.558507 -2.522343,1.733192 -0.217735,1.175154 0.558281,2.304359 1.733202,2.522328 l 9.497108,1.760622 c 0.133593,0.0248 0.266015,0.0366 0.397031,0.0366 1.022578,0 1.932187,-0.728197 2.125312,-1.769752 0.217734,-1.175395 -0.558281,-2.304599 -1.733203,-2.522338 z" />
  <path
     style="fill:#000000"
     id="path4"
     d="m 103.07689,61.430705 c -0.2175,-1.175145 -1.34602,-1.951391 -2.52211,-1.733192 l -9.49711,1.760622 c -1.175156,0.217729 -1.950937,1.347173 -1.733202,2.522328 0.193125,1.041795 1.102499,1.769752 2.125312,1.769752 0.130781,0 0.263672,-0.0122 0.396797,-0.0366 l 9.497103,-1.760612 c 1.17516,-0.217969 1.95117,-1.347184 1.73321,-2.522338 z" />
  <ellipse
     style="fill:#000000"
     id="ellipse6"
     ry="3.2245166"
     rx="3.2245305"
     cy="68.813011"
     cx="67.127281" />
  <ellipse
     style="fill:#000000"
     id="ellipse8"
     ry="3.2245166"
     rx="3.2245305"
     cy="68.813011"
     cx="96.389473" />
  <path
     style="fill:#000000"
     id="path10"
     d="m 70.813769,75.678999 c 0,6.044503 4.900311,10.9448 10.944841,10.9448 6.04453,0 10.944841,-4.900297 10.944841,-10.9448 z" />
  <path
     style="fill:#000000"
     id="path12"
     d="m 77.005955,71.309799 c 0,1.369924 2.12789,2.480149 4.75289,2.480149 2.624999,0 4.752889,-1.110465 4.752889,-2.480149 -2.34e-4,-1.369913 -9.505779,-1.369913 -9.505779,0 z" />
  <g
     id="g4496">
    <g
       id="g4491">
      <g
         id="g4487">
        <path
           d="m 113.92235,63.600075 c 5.82539,-5.736534 7.05703,-15.28493 5.39906,-23.000525 -0.0373,-0.173429 -0.0952,-0.339608 -0.17132,-0.495458 -0.22852,-0.467578 -0.6211,-0.843046 -1.11235,-1.047895 -0.14601,-0.0605 -2.47617,-1.018115 -5.84343,-1.669442 -1.76414,-0.341009 -3.81258,-0.598118 -5.98078,-0.598118 -0.75703,0 -1.49719,0.0312 -2.21953,0.0928 -3.13055,0.268359 -5.931566,1.116325 -8.361799,2.532648 -0.361172,0.210699 -4.027734,-1.579922 -4.646015,-1.762031 -1.516406,-0.446008 -3.065624,-0.783277 -4.63078,-1.005226 -3.886405,-0.551017 -7.871248,-0.397028 -11.702575,0.457968 -0.01359,0.003 -0.02719,0.006 -0.04078,0.01 -0.614062,0.137579 -1.224843,0.289219 -1.830702,0.462418 -0.327422,0.0937 -4.008515,-3.497564 -4.601483,-3.926232 -1.747969,-1.263514 -3.604453,-2.376079 -5.541093,-3.324825 -3.828046,-1.876171 -7.965935,-3.108736 -12.193356,-3.655303 -8.514139,-1.100385 -17.331559,0.623677 -24.722338,5.018657 -3.642655,2.16631 -6.919686,4.947397 -9.659295,8.180112 -2.850233,-7.608715 -1.98164,-16.224065 2.498906,-23.193643 1.041797,-1.620693 1.390312,-3.550294 0.981094,-5.432556 C 19.134565,9.3607027 18.016362,7.75008 16.395659,6.7080548 15.229175,5.9578282 13.881754,5.5615 12.499645,5.5615 10.031442,5.5615 7.7615208,6.8001643 6.427693,8.8746149 2.0373816,15.704034 -0.18144597,23.603138 0.01050711,31.719041 0.20269456,39.834704 2.7925377,47.619898 7.5004272,54.233698 l 0.6508592,0.914295 c -1.8110152,7.049728 -1.2112497,14.585094 -1.2112497,21.814121 0,6.641219 0,13.282199 0,19.923418 0,2.504287 0,5.008808 0,7.512858 0,5.53615 4.5037493,10.04011 10.0401533,10.04011 5.536171,0 10.040154,-4.50373 10.040154,-10.04011 V 93.183829 h 17.719918 v 11.214561 c 0,5.53615 4.503749,10.04011 10.040154,10.04011 5.53617,0 10.040153,-4.50373 10.040153,-10.04011 V 93.183829 h 8.531014 v 11.214561 c 0,5.53615 4.503749,10.04011 10.040154,10.04011 5.53617,0 10.040154,-4.50373 10.040154,-10.04011 0,0 0,-11.44401 0,-11.44307 0.0059,0.0413 5.767498,-1.569602 6.332342,-1.791791 3.382267,-1.330074 6.427727,-3.813963 8.718047,-6.60137 2.36062,-2.873197 4.03992,-6.281221 4.96007,-9.879805 0.46781,-1.829522 0.74039,-3.708493 0.81586,-5.594974 0.0295,-0.740147 -0.66258,-5.165127 -0.33586,-5.486925 z M 9.8814402,50.003807 C 6.4061286,44.486172 4.4926915,38.173551 4.3375353,31.616231 4.1662072,24.368454 6.1473786,17.313797 10.068003,11.215395 c 0.533671,-0.830157 1.442577,-1.3258544 2.431405,-1.3258544 0.550781,0 1.088672,0.1586694 1.555781,0.4591374 0.648516,0.416719 1.095469,1.061246 1.259297,1.814292 0.163593,0.752807 0.02414,1.524593 -0.392344,2.17288 -5.7250766,8.905499 -6.3888265,20.117248 -1.832343,29.567205 -1.243125,1.923041 -2.318906,3.963732 -3.2083588,6.100752 z M 60.492834,91.019709 v 13.378541 c 0,3.14974 -2.562421,5.71216 -5.712186,5.71216 -3.149765,0 -5.712186,-2.56242 -5.712186,-5.71216 V 91.019709 c 0,-1.195304 -0.968906,-2.16397 -2.163984,-2.16397 H 24.856827 c -1.195078,0 -2.163984,0.968666 -2.163984,2.16397 v 13.378541 c 0,3.14974 -2.562421,5.71216 -5.712186,5.71216 -3.149765,0 -5.712186,-2.56242 -5.712186,-5.71216 V 64.764439 c 0,-0.359528 0.0075,-0.718356 0.01875,-1.076705 0.0033,-0.103599 0.0077,-0.207189 0.01172,-0.310548 0.01102,-0.272579 0.02508,-0.544918 0.04242,-0.816797 0.0061,-0.097 0.01148,-0.194059 0.01851,-0.290858 0.02508,-0.348039 0.05484,-0.695387 0.0907,-1.041785 0.0089,-0.0853 0.01992,-0.17016 0.02953,-0.255239 0.02906,-0.262729 0.06117,-0.524998 0.09609,-0.786797 0.01828,-0.135699 0.03727,-0.271168 0.05719,-0.406638 0.03234,-0.220309 0.0675,-0.440618 0.104062,-0.660227 0.02719,-0.162189 0.05367,-0.324378 0.08273,-0.485628 0.04852,-0.268358 0.100312,-0.535777 0.155625,-0.802956 0.04078,-0.197109 0.08414,-0.393048 0.128437,-0.588517 0.02648,-0.11859 0.05391,-0.236949 0.08203,-0.355079 2.179219,-9.209717 8.091561,-16.991172 16.045075,-21.65357 0.112031,-0.0652 0.223125,-0.13125 0.335859,-0.19523 0.118125,-0.0673 0.236953,-0.133129 0.355781,-0.198989 0.190078,-0.105229 0.380859,-0.209529 0.573047,-0.311008 0.06633,-0.0352 0.132422,-0.0703 0.19875,-0.105 3.887108,-2.02289 8.159998,-3.300455 12.597887,-3.716003 0.045,-0.004 0.09023,-0.008 0.135235,-0.0122 0.273515,-0.0246 0.547734,-0.045 0.821953,-0.0628 0.07875,-0.005 0.157265,-0.0103 0.236015,-0.015 0.251016,-0.0148 0.502266,-0.0258 0.754219,-0.0347 0.08484,-0.003 0.168984,-0.007 0.253828,-0.01 0.326953,-0.01 0.654609,-0.015 0.982734,-0.015 3.26039,0 6.480233,0.471798 9.564607,1.373664 4.865624,1.422653 9.392107,3.918032 13.208903,7.318796 -0.121172,0.0551 -0.243516,0.10828 -0.364219,0.164999 -2.430233,-1.416323 -5.231248,-2.264519 -8.361794,-2.532648 -0.722578,-0.0621 -1.4625,-0.0928 -2.219531,-0.0928 -6.308671,0 -11.602263,2.17522 -11.824685,2.2678 -0.654843,0.272579 -1.134375,0.849136 -1.283671,1.543123 -0.132188,0.615927 -3.034453,14.695243 5.398826,23.000755 0.369141,0.363278 -0.453281,5.391065 -0.408515,6.331141 0.107109,2.250689 0.539531,4.484509 1.258593,6.619659 1.800703,5.347006 5.559608,10.156124 10.390545,13.10126 0.03328,0.0202 0.06727,0.0389 0.100312,0.0591 -0.276797,0.362809 -0.443203,0.815146 -0.443203,1.307564 z m 28.61179,13.378541 h -2.34e-4 c 0,3.14974 -2.562422,5.71216 -5.712186,5.71216 -3.149765,0 -5.712187,-2.56242 -5.712187,-5.71216 V 93.183689 H 89.104624 Z M 110.17657,61.165396 c -0.22523,0.191489 -0.40476,0.423278 -0.5325,0.678987 -0.21351,0.426088 -0.28429,0.918276 -0.18609,1.401313 0.23601,1.158985 0.39937,2.33906 0.48844,3.526624 0.0537,0.712737 0.0804,1.428284 0.0804,2.14382 0,0.338439 -0.009,0.674767 -0.0258,1.009216 -0.004,0.0865 -0.0136,0.172029 -0.019,0.258279 -0.0155,0.248668 -0.0321,0.497347 -0.0567,0.743436 -0.008,0.0839 -0.0211,0.166409 -0.0305,0.250079 -0.0284,0.248669 -0.0574,0.497108 -0.0947,0.742967 -0.0103,0.0691 -0.0241,0.137339 -0.0354,0.206249 -0.0424,0.260148 -0.087,0.519837 -0.13899,0.776946 -0.0101,0.0495 -0.0223,0.0977 -0.0326,0.146949 -0.0586,0.277269 -0.12117,0.553358 -0.19125,0.826407 -0.007,0.0258 -0.0141,0.0509 -0.0209,0.0764 -0.0778,0.297649 -0.16101,0.593198 -0.25195,0.885226 0,2.3e-4 -2.3e-4,4.7e-4 -2.3e-4,9.4e-4 -2.33274,7.483326 -8.96508,13.08838 -16.992656,13.911267 -0.2475,0.0251 -0.497812,0.0415 -0.748125,0.0576 -0.430547,0.0279 -0.862968,0.0471 -1.300312,0.0471 H 75.515679 73.429977 c -10.994529,0 -19.939449,-8.944879 -19.939449,-19.939359 0,-1.908041 0.19125,-3.816082 0.569063,-5.670444 0.157031,-0.772726 -0.11836,-1.569372 -0.718594,-2.0803 -6.275155,-5.335756 -5.55703,-15.169151 -5.099764,-18.511325 1.593515,-0.530858 4.752889,-1.417724 8.339998,-1.526473 0.239297,-0.007 0.48,-0.011 0.722812,-0.011 1.368984,0 2.661328,0.121169 3.871874,0.362108 2.017968,0.401718 3.809296,1.136015 5.353593,2.19702 0.329296,0.226409 0.707812,0.352968 1.092421,0.376638 0.192422,0.0117 0.38625,-0.002 0.576563,-0.042 0.190078,-0.0398 0.37664,-0.105699 0.554062,-0.197579 1.299843,-0.674757 2.63414,-1.241244 3.998671,-1.701322 0.02602,-0.007 0.0525,-0.0112 0.07852,-0.0199 2.149219,-0.715547 4.369687,-1.166714 6.626483,-1.349754 0.02602,-0.002 0.05203,-0.004 0.07781,-0.006 0.315703,-0.0248 0.632109,-0.0427 0.949218,-0.057 0.075,-0.003 0.15,-0.007 0.225234,-0.01 0.349454,-0.0127 0.69961,-0.0211 1.050469,-0.0211 4.586483,0 8.962263,1.064755 13.006169,3.164515 0.354609,0.183979 0.745546,0.262969 1.130156,0.239289 0.384843,-0.0237 0.763124,-0.149999 1.092656,-0.376638 2.470546,-1.698032 5.574838,-2.558888 9.225468,-2.558888 0.24117,0 0.48117,0.004 0.71929,0.011 0.0837,0.003 0.16594,0.008 0.24938,0.0112 0.15351,0.006 0.30726,0.0115 0.45914,0.0209 0.21445,0.0127 0.42633,0.0286 0.63703,0.0464 0.0192,0.002 0.0391,0.003 0.0586,0.004 2.91258,0.251009 5.42578,0.950856 6.83391,1.412104 0.0347,0.0113 0.0729,0.0234 0.10617,0.0347 0.45727,3.348734 1.17187,13.175569 -5.10047,18.508745 z"
           id="path14"
           style="fill:#000000" />
      </g>
    </g>
  </g>
</svg>
