<?xml version="1.0" encoding="UTF-8" standalone="no"?>
<svg
   xmlns:dc="http://purl.org/dc/elements/1.1/"
   xmlns:cc="http://creativecommons.org/ns#"
   xmlns:rdf="http://www.w3.org/1999/02/22-rdf-syntax-ns#"
   xmlns:svg="http://www.w3.org/2000/svg"
   xmlns="http://www.w3.org/2000/svg"
   viewBox="0 0 120 120"
   id="svg4"
   version="1.1"
   height="120"
   width="120"
   y="0px"
   x="0px">
  <metadata
     id="metadata10">
    <rdf:RDF>
      <cc:Work
         rdf:about="">
        <dc:format>image/svg+xml</dc:format>
        <dc:type
           rdf:resource="http://purl.org/dc/dcmitype/StillImage" />
        <dc:title></dc:title>
      </cc:Work>
    </rdf:RDF>
  </metadata>
  <defs
     id="defs8" />
  <path
     style="fill:#0000ff"
     id="path2-3"
     d="m 120,74.39857 v 38.0442 c 0,2.26366 -1.84157,4.10523 -4.10522,4.10523 H 0.60196 v -9.81598 c 0,-5.41241 4.40357,-9.815695 9.81597,-9.815695 H 23.22412 V 87.186347 C 15.99179,84.463473 10.46385,78.234115 8.72144,70.581455 L 0,68.186762 1.39405,63.109856 8.14317,64.963128 V 59.959342 L 0,57.722899 1.39405,52.645992 8.14317,54.499265 V 51.573681 C 5.53408,49.817229 3.63693,47.180055 2.94576,44.268522 L 0.72247,34.90181 c -0.56072,-2.363093 -0.0924,-4.716836 1.28407,-6.458378 1.34286,-1.698833 3.44622,-2.672864 5.771,-2.672864 h 9.36582 c 4.75925,0 9.382192,3.329524 11.177258,7.82465 h 25.427219 c 1.793018,-4.493956 6.416547,-7.82465 11.177844,-7.82465 h 9.366399 c 2.324488,0 4.427847,0.974611 5.77071,2.673444 1.376499,1.741832 1.844498,4.095285 1.283777,6.457798 l -2.222699,9.366712 c -0.691467,2.911823 -2.5892,5.548997 -5.197412,7.305159 v 2.925584 l 6.749119,-1.853273 1.394049,5.076907 C -33.33019,149.37862 54.203317,57.038158 93.66662,57.038158 V 32.657757 c 0,-3.438325 -1.354563,-6.686819 -3.813601,-9.146742 C 87.394274,21.052272 84.146074,19.698 80.706872,19.698 c -4.479035,0 -8.122986,-3.643964 -8.122986,-8.123 0,-4.479045 3.643951,-8.123 8.122986,-8.123 7.777545,0 15.105227,3.044334 20.633458,8.572281 5.52764,5.528527 8.57226,12.856216 8.57226,20.633476 V 58.64368 C 115.98545,61.470984 120,67.678112 120,74.39857 Z" />
  <path
     style="fill:#000000"
     id="path2"
     d="m 54.729463,50.95037 h -5.895607 v -5.264986 h 5.895607 z M 33.235184,45.685384 h -5.895315 v 5.264986 h 5.895315 z M 120,74.39857 v 38.0442 c 0,2.26366 -1.84157,4.10523 -4.10522,4.10523 H 0.60196267 v -9.81598 c 0,-5.41241 4.40357043,-9.815695 9.81596933,-9.815695 H 23.224118 V 87.186347 C 15.991791,84.463473 10.463854,78.234115 8.7214387,70.581455 L 0,68.186762 1.3940496,63.109856 8.1431684,64.963128 V 59.959342 L 0,57.722899 1.3940496,52.645992 8.1431684,54.499265 V 51.573681 C 5.5340786,49.817229 3.6369309,47.180055 2.9457561,44.268522 L 0.7224722,34.90181 c -0.56072033,-2.363093 -0.0924296,-4.716836 1.28407,-6.458378 1.3428623,-1.698833 3.4462217,-2.672864 5.7710027,-2.672864 h 9.3658141 c 4.759249,0 9.382193,3.329524 11.177259,7.82465 h 25.427219 c 1.793018,-4.493956 6.416547,-7.82465 11.177844,-7.82465 h 9.366399 c 2.324488,0 4.427847,0.974611 5.77071,2.673444 1.376499,1.741832 1.844498,4.095285 1.283777,6.457798 l -2.222699,9.366712 c -0.691467,2.911823 -2.5892,5.548997 -5.197412,7.305159 v 2.925584 l 6.749119,-1.853273 1.394049,5.076907 -8.143168,2.236443 v 5.003786 l 6.748826,-1.853272 1.394635,5.076906 -8.721439,2.394983 C 70.993277,80.924819 61.721648,88.667858 50.675721,88.667858 H 31.393903 c -0.983381,0 -1.953307,-0.0614 -2.905098,-0.18048 v 8.428947 h 17.480024 v 5.264985 H 10.41764 c -2.5093481,0 -4.5509902,2.04135 -4.5509902,4.55071 v 4.55099 H 62.642435 v -4.55099 c 0,-5.41241 4.40357,-9.815695 9.815969,-9.815695 h 17.431178 v 5.264985 H 72.458404 c -2.509348,0 -4.55099,2.04135 -4.55099,4.55071 v 4.55099 h 38.269966 c -1.39727,-0.9787 -2.71497,-2.08405 -3.9385,-3.30728 C 96.710948,102.4469 93.66662,95.119217 93.66662,87.342247 V 62.303145 H 86.371113 V 57.038158 H 93.66662 V 32.657757 c 0,-3.438325 -1.354563,-6.686819 -3.813601,-9.146742 C 87.394274,21.052272 84.146074,19.698 80.706872,19.698 c -4.479035,0 -8.122986,-3.643964 -8.122986,-8.123 0,-4.4790457 3.643951,-8.123 8.122986,-8.123 7.777545,0 15.105227,3.0443339 20.633458,8.572281 5.52764,5.528527 8.57226,12.856216 8.57226,20.633476 V 58.64368 C 115.98545,61.470984 120,67.678112 120,74.39857 Z M 43.867225,67.440311 v -1.855032 h -5.665118 v 1.855032 c 0,1.022862 0.831867,1.854733 1.854443,1.854733 h 1.956525 c 1.022283,0 1.85415,-0.831871 1.85415,-1.854733 z M 31.393903,83.403162 h 7.008566 V 74.3661 c -3.130616,-0.747621 -5.465634,-3.569364 -5.465634,-6.925789 v -7.120019 h 16.195077 v 7.120019 c 0,3.356425 -2.334141,6.177868 -5.464756,6.925499 v 9.037352 h 7.008273 c 7.504643,0 13.950148,-4.619736 16.6426,-11.165285 l -7.139897,1.960913 -1.394635,-5.076907 9.850192,-2.705033 c 0.01843,-0.33081 0.0275,-0.664261 0.0275,-0.999471 v -4.011915 l -8.483345,2.329463 -1.394049,-5.076907 9.877394,-2.712353 v -7.5026 l 1.454304,-0.727741 c 1.915283,-0.958811 3.440664,-2.788683 3.885263,-4.662146 l 2.222699,-9.366112 c 0.189246,-0.797941 0.08599,-1.499942 -0.291329,-1.977302 -0.348074,-0.440501 -0.915229,-0.673331 -1.640041,-0.673331 h -9.366399 c -2.815594,0 -5.876302,2.494433 -6.549927,5.337817 l -0.591433,2.486833 H 24.283553 l -0.58997,-2.485663 C 23.018788,33.531158 19.95808,31.036435 17.143071,31.036435 H 7.7775499 c -0.7251047,0 -1.292845,0.23283 -1.6406262,0.673041 -0.3773235,0.47736 -0.4811606,1.179651 -0.2916214,1.977592 l 2.2235764,9.366702 c 0.4445983,1.872873 1.9693953,3.702745 3.8852623,4.661846 l 1.454305,0.727741 v 7.50261 l 9.877686,2.712343 -1.394342,5.076907 -8.483344,-2.329463 v 4.011925 c 0,0.3352 0.0091,0.668941 0.02749,0.999461 l 9.850192,2.705033 -1.394634,5.076917 -7.139898,-1.960923 c 2.691867,6.545259 9.137665,11.164995 16.642307,11.164995 z m 83.341117,20.229528 c -1.73949,-0.87808 -3.35145,-2.04135 -4.73146,-3.42106 -3.45383,-3.454715 -5.35566,-8.025007 -5.35566,-12.869383 v -54.68419 c 0,-6.370928 -2.49677,-12.376526 -7.030206,-16.910552 C 93.083962,11.21406 87.078668,8.7172863 80.707457,8.7172863 c -1.575984,0 -2.858006,1.2820217 -2.858006,2.8580037 0,1.575992 1.282022,2.858014 2.858006,2.858014 4.845536,0 9.415831,1.901832 12.869073,5.355366 3.453827,3.454415 5.355654,8.024721 5.355654,12.869387 v 54.68419 c 0,6.370928 2.496476,12.376522 7.029916,16.910833 2.50789,2.50761 5.49781,4.41002 8.77292,5.6002 z m 0,-29.23412 c 0,-3.806585 -1.85181,-7.377999 -4.82184,-9.639892 v 22.583569 c 0,3.438034 1.35456,6.686528 3.81389,9.146741 0.3197,0.319697 0.65637,0.622727 1.00795,0.907918 z" />
</svg>
