<?xml version="1.0" encoding="UTF-8" standalone="no"?>
<svg
   xmlns:dc="http://purl.org/dc/elements/1.1/"
   xmlns:cc="http://creativecommons.org/ns#"
   xmlns:rdf="http://www.w3.org/1999/02/22-rdf-syntax-ns#"
   xmlns:svg="http://www.w3.org/2000/svg"
   xmlns="http://www.w3.org/2000/svg"
   viewBox="0 0 120 120"
   id="svg23"
   version="1.1"
   height="120"
   width="120"
   y="0px"
   x="0px">
  <metadata
     id="metadata29">
    <rdf:RDF>
      <cc:Work
         rdf:about="">
        <dc:format>image/svg+xml</dc:format>
        <dc:type
           rdf:resource="http://purl.org/dc/dcmitype/StillImage" />
        <dc:title></dc:title>
      </cc:Work>
    </rdf:RDF>
  </metadata>
  <defs
     id="defs27" />
  <path
     style="fill:#ffcc00"
     id="path7-5"
     d="m 114.85223,87.64939 c 0.003,-0.052 0.008,-0.10688 0.008,-0.16172 V 34.18319 c 0,-2.78016 -1.08187,-5.39321 -3.04571,-7.35165 -1.96663,-1.96126 -4.5743,-3.04313 -7.34884,-3.04313 -5.732821,0 -10.394785,4.66196 -10.394785,10.39478 V 54.90948 L 70.337099,39.91883 c 1.369456,-3.85665 2.098129,-7.9076 2.098129,-11.94495 V 5.689 C 72.435428,2.55282 69.88261,0 66.746433,0 c -1.44352,0 -2.82118,0.54234 -3.87563,1.52555 -0.0246,0.022 -0.0466,0.0438 -0.0713,0.0684 l -9.70432,9.70455 c -4.36055,-2.44594 -9.26064,-3.73056 -14.30885,-3.73056 -5.04798,0 -9.95088,1.28462 -14.30886,3.73056 l -9.70455,-9.70432 c -0.0246,-0.0246 -0.0466,-0.0466 -0.0713,-0.0684 C 13.647173,0.54234 12.269513,0 10.825993,0 7.6898125,0 5.1370025,2.55282 5.1370025,5.689 v 22.28488 c 0,8.93744 3.56344,17.95715 9.7729805,24.74724 2.462349,2.6925 5.21509,4.92212 8.17056,6.65579 -0.14507,1.77493 -0.19453,3.57728 -0.14507,5.37939 0.216319,8.0747 2.391089,16.01511 6.28618,23.03817 v 15.55503 h -0.104061 c -4.59071,0 -8.32666,3.73337 -8.32666,8.32384 v 3.06493 c 0,2.90063 2.3611,5.26173 5.25892,5.26173 h 14.17737 c 3.56907,0 6.61478,-2.28985 7.74611,-5.47806 h 2.865 v 0.0602 c 0,2.98547 2.42954,5.41782 5.41501,5.41782 h 31.323813 c 8.091104,0 15.776985,-3.90305 20.553795,-10.4358 0.003,0 0.003,-0.003 0.003,-0.003 0.51211,-0.69563 0.99703,-1.43532 1.44352,-2.2022 0.008,-0.011 0.0136,-0.0218 0.022,-0.0328 0.0164,-0.03 0.0356,-0.0602 0.0549,-0.0931 3.6886,-6.14884 5.35946,-12.91713 5.19797,-19.58394 z" />
  <circle
     style="fill:#000000"
     id="circle2"
     r="2.6786771"
     cy="28.609276"
     cx="21.796875" />
  <path
     r="2.6786771"
     id="circle4285"
     cy="28.609276"
     cx="55.777565"
     d="m 46.805906,39.12992 c -0.671016,-1.18594 -2.177582,-1.59961 -3.360709,-0.92578 -0.23836,0.13429 -0.627189,0.27656 -1.120314,0.1725 -0.558752,-0.11789 -1.01883,-0.52852 -1.194144,-1.07086 l -0.0028,0.003 c -0.23836,-0.72305 -0.799689,-1.32563 -1.575003,-1.5804 -1.295627,-0.42187 -2.687114,0.28477 -3.108756,1.57759 -0.178125,0.54234 -0.635391,0.9532 -1.196955,1.07086 -0.490313,0.10406 -0.879143,-0.0384 -1.120315,-0.1725 -1.183362,-0.67383 -2.68688,-0.26016 -3.360709,0.92578 -0.671017,1.18336 -0.257579,2.68711 0.925783,3.36071 0.98883,0.56156 2.100941,0.85195 3.223834,0.85195 0.446485,0 0.898361,-0.0466 1.344846,-0.13968 0.925784,-0.19453 1.783128,-0.58899 2.522583,-1.13391 0.742267,0.54516 1.602425,0.93938 2.530787,1.13391 0.443672,0.093 0.895782,0.13968 1.344845,0.13968 1.120315,0 2.232427,-0.29039 3.221022,-0.85195 1.183596,-0.6736 1.599846,-2.17735 0.926017,-3.36071 z" />
  <path
     style="fill:#000000"
     id="path5"
     d="m 99.325922,80.84383 c -0.17085,-0.0448 -0.347101,-0.0734 -0.526401,-0.0841 -0.268831,-0.0162 -0.544692,0.007 -0.820082,0.075 -1.468125,0.36164 -2.366487,1.84617 -2.005076,3.3143 1.136713,4.60712 0.435461,9.40315 -1.972036,13.50073 -0.766882,1.30383 -0.331411,2.9829 0.975003,3.74696 0.435461,0.25758 0.912182,0.37805 1.383284,0.37805 0.939373,0 1.854375,-0.48211 2.363907,-1.35024 0.293911,-0.50039 0.568591,-1.00898 0.823362,-1.52437 0.254761,-0.5154 0.489837,-1.03805 0.705237,-1.56657 0.14344,-0.35227 0.2782,-0.70735 0.40406,-1.065 0.56649,-1.60876 0.95344,-3.26626 1.15758,-4.94743 0.0227,-0.1868 0.0431,-0.37383 0.0612,-0.5611 0.0363,-0.37477 0.0635,-0.75023 0.0818,-1.12664 0.0363,-0.75282 0.0363,-1.50844 -4.7e-4,-2.26501 -0.0183,-0.37828 -0.0459,-0.75656 -0.0827,-1.13484 -0.0551,-0.56743 -0.13102,-1.13461 -0.22782,-1.7004 -0.0645,-0.37734 -0.13828,-0.75398 -0.22148,-1.12992 -0.0415,-0.18797 -0.0856,-0.3757 -0.13172,-0.5632 -0.0769,-0.31219 -0.20695,-0.59649 -0.37453,-0.85055 -0.0787,-0.1193 -0.16359,-0.23344 -0.25875,-0.33774 -0.0595,-0.0654 -0.12211,-0.1275 -0.18727,-0.18656 -0.10429,-0.0942 -0.21703,-0.17766 -0.33398,-0.25477 -0.248676,-0.16453 -0.522427,-0.29039 -0.813058,-0.36656 z" />
  <path
     style="fill:#000000"
     id="path7"
     d="m 114.85213,87.64939 c 0.003,-0.052 0.008,-0.10688 0.008,-0.16172 V 34.18319 c 0,-2.78016 -1.08187,-5.39321 -3.04571,-7.35165 -1.96663,-1.96126 -4.5743,-3.04313 -7.34884,-3.04313 -5.732819,0 -10.394783,4.66196 -10.394783,10.39478 V 54.90948 L 70.337001,39.91883 c 1.369456,-3.85665 2.098129,-7.9076 2.098129,-11.94495 V 5.689 C 72.43533,2.55282 69.882512,0 66.746334,0 c -1.443518,0 -2.821177,0.54234 -3.875632,1.52555 -0.02461,0.022 -0.04664,0.0438 -0.07125,0.0684 L 53.095137,11.2985 C 48.734582,8.85256 43.834495,7.56794 38.786282,7.56794 c -5.047978,0 -9.950879,1.28462 -14.308855,3.73056 L 14.772878,1.59418 c -0.02461,-0.0246 -0.04664,-0.0466 -0.07125,-0.0684 C 13.647173,0.54234 12.269514,0 10.825995,0 7.6898174,0 5.137,2.55282 5.137,5.689 v 22.28488 c 0,8.93744 3.5634443,17.95715 9.772987,24.74724 2.462348,2.6925 5.215088,4.92212 8.170562,6.65579 -0.145079,1.77493 -0.194532,3.57728 -0.145079,5.37939 0.216329,8.0747 2.391099,16.01511 6.286185,23.03817 v 15.55503 h -0.104063 c -4.590712,0 -8.326657,3.73337 -8.326657,8.32384 v 3.06493 c 0,2.90063 2.361099,5.26173 5.258916,5.26173 h 14.177371 c 3.56907,0 6.614779,-2.28985 7.746109,-5.47806 h 2.865005 v 0.0602 c 0,2.98547 2.429536,5.41782 5.41501,5.41782 h 31.323812 c 8.091104,0 15.776982,-3.90305 20.553792,-10.4358 0.003,0 0.003,-0.003 0.003,-0.003 0.51211,-0.69563 0.99703,-1.43532 1.44352,-2.2022 0.008,-0.011 0.0136,-0.0218 0.022,-0.0328 0.0164,-0.03 0.0356,-0.0602 0.0549,-0.0931 3.6886,-6.14884 5.35946,-12.91713 5.19797,-19.58394 z M 18.949917,49.02338 c -0.566955,-0.6218 -1.106487,-1.2654 -1.62141,-1.92821 l 1.980238,-0.16711 c 1.506565,-0.12867 2.626646,-1.45453 2.497974,-2.96086 -0.126094,-1.50915 -1.451722,-2.62665 -2.960865,-2.49798 l -4.828837,0.40805 c -0.495705,-0.975 -0.936799,-1.97485 -1.32844,-2.9911 l 6.031417,0.79969 c 0.12047,0.0164 0.240938,0.0218 0.361641,0.0218 1.35305,0 2.530787,-0.99985 2.711724,-2.37751 0.199923,-1.50094 -0.854532,-2.87883 -2.355473,-3.07594 l -8.356891,-1.1093 C 10.77701,31.43303 10.615292,29.70193 10.615292,27.97365 V 5.689 c 0,-0.11508 0.09586,-0.21094 0.210937,-0.21094 0.01922,0 0.07125,0 0.126095,0.041 l 11.178067,11.18088 c 0.925783,0.92298 2.372114,1.06548 3.459382,0.33961 3.911257,-2.61305 8.474547,-3.99352 13.196743,-3.99352 4.719384,0 9.285252,1.38047 13.196743,3.99352 1.087503,0.72587 2.5336,0.58337 3.459382,-0.33961 L 66.62071,5.51906 c 0.05484,-0.041 0.106874,-0.041 0.126093,-0.041 0.115079,0 0.210938,0.0959 0.210938,0.21094 v 22.28488 c 0,1.72829 -0.158907,3.45938 -0.465704,5.17126 l -8.359469,1.1093 c -1.498362,0.19711 -2.552817,1.575 -2.355473,3.07595 0.183516,1.37765 1.358674,2.3775 2.711724,2.3775 0.120469,0 0.240938,-0.008 0.364219,-0.022 l 6.031418,-0.79969 c -0.388828,1.01625 -0.832736,2.01586 -1.32844,2.9911 l -4.83165,-0.40805 c -1.509143,-0.12867 -2.832192,0.98883 -2.960865,2.49798 -0.126094,1.50656 0.991643,2.83219 2.497974,2.96086 l 1.98305,0.16711 c -0.514922,0.66281 -1.054455,1.30641 -1.621408,1.92821 -5.431417,5.93556 -12.476274,9.20322 -19.836132,9.20322 -7.359857,0 -14.405417,-3.26766 -19.837068,-9.20322 z m 86.019773,55.36979 -1.2982,1.98844 c -3.755176,5.09744 -9.767373,8.14033 -16.094572,8.14033 H 56.315924 v -3.1936 c 0,-1.76109 1.42969,-3.19383 3.191022,-3.19383 h 8.104937 c 0.966798,0 1.859769,-0.50953 2.355473,-1.34204 0.493126,-0.82992 0.512111,-1.85977 0.04922,-2.70891 -1.585784,-2.90883 -2.424145,-6.21212 -2.424145,-9.54822 0,-11.02197 8.964861,-19.98684 19.984016,-19.98684 1.511965,0 2.739148,-1.22718 2.739148,-2.73914 0,-1.51477 -1.227183,-2.73915 -2.739148,-2.73915 -14.040255,0 -25.462073,11.42182 -25.462073,25.4649 0,2.76633 0.451876,5.51368 1.325628,8.12134 h -3.93329 c -3.99071,0 -7.357044,2.71172 -8.362281,6.38743 H 48.443723 V 91.53323 c 0,-1.51477 -1.227189,-2.73915 -2.739146,-2.73915 -1.514768,0 -2.739146,1.22438 -2.739146,2.73915 v 20.2498 c 0,1.50914 -1.229767,2.73915 -2.739146,2.73915 H 26.268056 v -2.8486 c 0,-1.56938 1.279222,-2.84579 2.848599,-2.84579 h 2.843209 c 1.511956,0 2.739145,-1.22719 2.739145,-2.73915 V 87.81931 c 0.147892,-0.6518 0.06305,-1.35867 -0.298593,-1.98305 -3.719539,-6.42306 -5.790246,-13.7637 -5.98759,-21.22762 -0.02461,-0.90937 -0.01922,-1.81875 0.01102,-2.7225 3.319694,1.19695 6.806498,1.81875 10.361739,1.81875 8.91822,0 17.39558,-3.90048 23.876294,-10.98354 2.144771,-2.34469 3.971727,-4.95212 5.445245,-7.73228 l 25.968802,16.40136 c 14.920104,9.41651 19.696924,28.29967 10.893774,43.00274 z m 4.41259,-35.15561 v 0 c -2.48438,-4.05095 -5.78204,-7.71049 -9.833227,-10.7262 V 34.18319 c 0,-2.71172 2.205007,-4.91649 4.916497,-4.91649 1.31204,0 2.54719,0.51211 3.4786,1.4407 0.92578,0.92579 1.4379,2.16118 1.4379,3.47579 v 35.05437 z" />
  <circle
     style="fill:#000000"
     r="2.6786771"
     id="circle4291"
     cy="28.609276"
     cx="21.796875" />
  <path
     style="fill:#000000"
     id="path10"
     d="m 46.805906,39.12992 c -0.671016,-1.18594 -2.177582,-1.59961 -3.360709,-0.92578 -0.23836,0.13429 -0.627189,0.27656 -1.120314,0.1725 -0.558752,-0.11789 -1.01883,-0.52875 -1.194144,-1.07086 l -0.0028,0.003 c -0.23836,-0.72305 -0.799689,-1.32563 -1.575003,-1.5804 -1.295627,-0.42187 -2.687114,0.28477 -3.108756,1.57782 -0.178125,0.54235 -0.635391,0.95321 -1.196955,1.07086 -0.490313,0.10406 -0.879143,-0.0384 -1.120315,-0.1725 -1.183362,-0.67383 -2.68688,-0.26016 -3.360709,0.92578 -0.671017,1.18337 -0.257579,2.68712 0.925783,3.36071 0.98883,0.56157 2.100941,0.85196 3.223834,0.85196 0.446485,0 0.898361,-0.0466 1.344846,-0.13969 0.925784,-0.19453 1.783128,-0.58898 2.522583,-1.13391 0.742267,0.54516 1.602425,0.93938 2.530787,1.13391 0.443672,0.0931 0.895782,0.13969 1.344845,0.13969 1.120315,0 2.232427,-0.29039 3.221022,-0.85196 1.183596,-0.67383 1.599846,-2.17758 0.926017,-3.36094 z" />
  <circle
     style="fill:#000000"
     r="2.6786771"
     id="circle4295"
     cy="28.609276"
     cx="55.777565" />
  <path
     style="fill:#000000"
     id="path13"
     d="m 101.29375,82.83954 c -0.36165,-1.46813 -1.846177,-2.36649 -3.314311,-2.00509 -1.468125,0.36165 -2.366487,1.84618 -2.005076,3.31431 1.136713,4.60712 0.435461,9.40314 -1.972036,13.50073 -0.766882,1.30383 -0.331411,2.98289 0.975003,3.74696 0.435461,0.25758 0.912182,0.37805 1.383284,0.37805 0.939373,0 1.854375,-0.48211 2.363907,-1.35024 3.136179,-5.33837 4.048369,-11.58331 2.569229,-17.58472 z" />
  <circle
     style="fill:#000000"
     id="circle15"
     r="2.6786771"
     cy="28.609276"
     cx="21.796875" />
  <circle
     style="fill:#000000"
     id="circle17"
     r="2.6786771"
     cy="28.609276"
     cx="55.777565" />
  <path
     style="fill:#000000"
     id="path19"
     d="m 46.805906,39.12992 c -0.671016,-1.18594 -2.177582,-1.59961 -3.360709,-0.92578 -0.23836,0.13429 -0.627189,0.27656 -1.120314,0.1725 -0.558752,-0.11789 -1.01883,-0.52875 -1.194144,-1.07086 l -0.0028,0.003 c -0.23836,-0.72305 -0.799689,-1.32563 -1.575003,-1.5804 -1.295627,-0.42187 -2.687114,0.28477 -3.108756,1.57782 -0.178125,0.54235 -0.635391,0.95321 -1.196955,1.07086 -0.490313,0.10406 -0.879143,-0.0384 -1.120315,-0.1725 -1.183362,-0.67383 -2.68688,-0.26016 -3.360709,0.92578 -0.671017,1.18337 -0.257579,2.68712 0.925783,3.36071 0.98883,0.56157 2.100941,0.85196 3.223834,0.85196 0.446485,0 0.898361,-0.0466 1.344846,-0.13969 0.925784,-0.19453 1.783128,-0.58898 2.522583,-1.13391 0.742267,0.54516 1.602425,0.93938 2.530787,1.13391 0.443672,0.0931 0.895782,0.13969 1.344845,0.13969 1.120315,0 2.232427,-0.29039 3.221022,-0.85196 1.183596,-0.67383 1.599846,-2.17758 0.926017,-3.36094 z" />
  <path
     style="fill:#000000"
     id="path21"
     d="m 101.29375,82.83954 c -0.36165,-1.46813 -1.846177,-2.36649 -3.314311,-2.00509 -1.468125,0.36165 -2.366487,1.84618 -2.005076,3.31431 1.136713,4.60712 0.435461,9.40314 -1.972036,13.50073 -0.766882,1.30383 -0.331411,2.98289 0.975003,3.74696 0.435461,0.25758 0.912182,0.37805 1.383284,0.37805 0.939373,0 1.854375,-0.48211 2.363907,-1.35024 3.136179,-5.33837 4.048369,-11.58331 2.569229,-17.58472 z" />
</svg>
