<?xml version="1.0" encoding="UTF-8"?>

<svg x="0px" y="0px" width="120" height="120">
  <g transform="matrix(0.27205271,0,0,0.27205271,2.7183446e-4,-6.3378906e-6)">
    <path fill="#000000" d="m 350.33,194.981 c 25.284,-20.632 40.285,-52.43 40.285,-85.746 C 390.615,49.003 343.115,0 284.729,0 c -63.228,0 -91.065,53.488 -91.081,53.517 -5.701,8.93 -2.524,21.386 7.247,27.987 4.026,2.717 8.557,4.028 12.925,4.028 6.271,0 12.201,-2.711 15.814,-7.836 12.875,-16.193 26.164,-22.801 45.86,-22.801 31.924,0 57.896,26.908 57.896,59.983 0,15.377 -5.831,30.314 -16.096,41.598 -6.675,-4.414 -17.926,-10.748 -32.653,-14.981 -20.793,-5.974 -52.414,-8.596 -88.082,10.731 l 0,-15.381 c 0,-1.979 -1.167,-3.771 -2.976,-4.572 -1.809,-0.799 -3.92,-0.46 -5.385,0.871 l -41.614,37.793 c -6.657,-1.676 -13.684,-2.593 -20.958,-2.593 -7.272,0 -14.298,0.916 -20.954,2.592 L 63.057,133.144 c -1.465,-1.331 -3.576,-1.67 -5.385,-0.871 -1.809,0.801 -2.976,2.594 -2.976,4.572 l 0,75.088 c -2.723,6.723 -4.222,13.94 -4.222,21.459 0,35.174 32.426,63.897 72.759,64.997 l 12.159,131.113 c 0.003,0.034 0.015,0.065 0.019,0.099 0.42,6.688 8.24,11.488 18.936,11.488 10.688,0 18.505,-4.794 18.935,-11.475 0.003,-0.031 0.015,-0.061 0.018,-0.092 l 8.973,-92.631 c 1.083,-0.608 3.944,-1.603 8.385,-1.603 4.441,0 7.303,0.995 8.385,1.602 l 8.974,92.632 c 0.003,0.031 0.014,0.061 0.018,0.092 0.43,6.681 8.247,11.475 18.935,11.475 10.673,0 18.481,-4.78 18.933,-11.445 0.003,-0.027 0.013,-0.052 0.016,-0.079 L 258.431,310.8 c 0.01,-0.09 -0.004,-0.176 0.001,-0.265 0.005,-0.088 0.026,-0.171 0.026,-0.26 0,-2.12 0.922,-4.14 2.529,-5.929 13.975,48.069 11.174,123.702 11.142,124.496 -0.001,0.034 0.007,0.065 0.006,0.1 -10e-4,0.033 -0.01,0.064 -0.01,0.099 0,6.981 7.98,12.049 18.976,12.049 10.504,0 18.236,-4.629 18.91,-11.127 0.627,-1.984 2.129,-7.502 3.717,-18.917 1.316,11.022 2.206,18.345 2.236,18.599 0.002,0.018 0.009,0.032 0.011,0.049 0.485,6.64 8.282,11.397 18.929,11.397 10.789,0 17.788,-4.634 18.949,-11.661 1.268,-8.147 20.759,-137.704 -3.523,-234.449 z m -163.771,-46.84 0,47.243 c -7.447,-8.918 -17.43,-16.144 -29.036,-20.872 l 29.036,-26.371 z m -121.862,0 29.038,26.369 c -11.607,4.729 -21.591,11.955 -29.038,20.874 l 0,-47.243 z m -4.222,85.252 c 0,-30.354 29.227,-55.048 65.151,-55.048 35.926,0 65.154,24.694 65.154,55.048 0,30.354 -29.228,55.05 -65.154,55.05 -35.924,-10e-4 -65.151,-24.696 -65.151,-55.05 z m 221.668,195.279 c 0.28,-7.838 2.474,-81.799 -12.329,-129.686 3.178,-1.064 6.816,-1.639 10.647,-1.681 18.12,-0.198 22.011,13.336 22.022,13.408 2.564,16.411 3.388,32.991 5.857,54.465 0.946,13.81 -4.874,61.768 -8.254,63.469 -3.38,1.7 -3.684,2.442 -8.986,2.442 -5.252,10e-4 -8.235,-1.654 -8.957,-2.417 z m 43.77,-0.029 c -0.003,-0.036 -0.015,-0.069 -0.018,-0.105 -0.004,-0.033 0.002,-0.065 -0.002,-0.1 -0.109,-0.895 -8.666,-86.569 -13.439,-118.518 -2.558,-14.14 -14.213,-22.614 -31.991,-22.614 -17.762,0 -31.706,9.887 -31.989,22.578 l -12.501,118.633 c -0.002,0.021 0.002,0.04 0,0.06 -0.002,0.023 -0.01,0.043 -0.012,0.066 -0.678,0.751 -3.678,2.447 -8.991,2.447 -5.313,0 -8.313,-1.696 -8.991,-2.447 -0.001,-0.016 -0.007,-0.029 -0.008,-0.045 -0.001,-0.014 0.001,-0.025 0,-0.039 l -9.051,-93.425 c -0.004,-0.047 -0.021,-0.089 -0.027,-0.134 -0.524,-6.693 -9.405,-9.71 -18.235,-9.71 -8.829,0 -17.71,3.017 -18.234,9.709 -0.006,0.046 -0.022,0.088 -0.027,0.135 l -9.05,93.425 c -0.001,0.014 0.002,0.025 0,0.039 -0.001,0.016 -0.007,0.029 -0.008,0.045 -0.678,0.751 -3.678,2.447 -8.991,2.447 -5.313,0 -8.314,-1.696 -8.991,-2.447 l -0.006,0 c -0.001,-0.022 0.003,-0.042 0.001,-0.064 l -12.1,-130.47 c 37.873,-3.318 67.53,-31.076 67.53,-64.717 0,-7.518 -1.499,-14.735 -4.222,-21.459 l 0,-48.211 c 27.75,-16.548 56.305,-20.834 84.918,-12.73 22.135,6.268 36.061,18.008 36.199,18.126 0.942,0.807 2.099,1.202 3.25,1.202 1.406,0 2.806,-0.591 3.795,-1.742 1.461,-1.7 1.556,-4.091 0.427,-5.896 11.637,-13.051 18.242,-30.178 18.242,-47.803 0,-38.589 -30.464,-70.644 -67.896,-69.983 -35.327,0.623 -53.902,26.861 -53.939,26.916 -2.96,4.384 -9.719,5.013 -15.063,1.404 -5.343,-3.609 -7.282,-10.113 -4.321,-14.496 0.039,-0.058 0.061,-0.121 0.097,-0.18 0.022,-0.04 25.615,-48.54 82.46,-48.54 52.872,0 95.886,44.517 95.886,99.235 0,31.353 -14.568,61.21 -38.969,79.867 -1.552,1.19 -2.325,3.233 -1.797,5.241 25.683,97.638 4.286,232.545 4.067,233.896 -0.022,0.137 -0.014,0.271 -0.024,0.406 -0.684,0.752 -3.682,2.443 -8.988,2.443 -5.314,0.002 -8.314,-1.695 -8.991,-2.445 z" />
    <path fill="#000000" d="m 104.078,241.913 c -9.647,0 -17.495,-7.848 -17.495,-17.493 0,-9.646 7.848,-17.495 17.495,-17.495 9.646,0 17.494,7.849 17.494,17.495 0,9.645 -7.848,17.493 -17.494,17.493 z m 0,-24.988 c -4.133,0 -7.495,3.362 -7.495,7.495 0,4.132 3.362,7.493 7.495,7.493 4.132,0 7.494,-3.361 7.494,-7.493 0,-4.133 -3.362,-7.495 -7.494,-7.495 z" />
    <path fill="#000000" d="m 147.178,241.913 c -9.646,0 -17.494,-7.848 -17.494,-17.493 0,-9.646 7.848,-17.495 17.494,-17.495 9.647,0 17.495,7.849 17.495,17.495 0,9.645 -7.848,17.493 -17.495,17.493 z m 0,-24.988 c -4.132,0 -7.494,3.362 -7.494,7.495 0,4.132 3.362,7.493 7.494,7.493 4.133,0 7.495,-3.361 7.495,-7.493 0,-4.133 -3.362,-7.495 -7.495,-7.495 z" />
    <path fill="#000000" d="m 104.446,245.681 -25.344,-3.802 c -2.725,-0.41 -5.277,1.473 -5.687,4.202 -0.41,2.732 1.472,5.277 4.203,5.687 l 25.344,3.802 c 0.252,0.038 0.501,0.057 0.748,0.057 2.433,0 4.566,-1.78 4.938,-4.259 0.411,-2.732 -1.471,-5.278 -4.202,-5.687 z" />
    <path fill="#000000" d="m 102.963,255.709 -25.344,3.802 c -2.731,0.409 -4.613,2.955 -4.203,5.686 0.372,2.479 2.505,4.259 4.938,4.259 0.247,0 0.497,-0.018 0.748,-0.057 l 25.344,-3.802 c 2.731,-0.409 4.613,-2.955 4.203,-5.686 -0.41,-2.732 -2.961,-4.615 -5.686,-4.202 z" />
    <path fill="#000000" d="m 147.545,255.626 c 0.247,0 0.497,-0.019 0.748,-0.057 l 25.344,-3.802 c 2.731,-0.409 4.613,-2.955 4.203,-5.687 -0.41,-2.731 -2.958,-4.622 -5.687,-4.202 l -25.344,3.802 c -2.731,0.409 -4.613,2.955 -4.203,5.687 0.372,2.48 2.505,4.259 4.939,4.259 z" />
    <path fill="#000000" d="m 173.637,259.511 -25.344,-3.802 c -2.729,-0.415 -5.277,1.472 -5.686,4.202 -0.41,2.732 1.472,5.277 4.203,5.686 l 25.344,3.802 c 0.251,0.038 0.501,0.057 0.748,0.057 2.433,0 4.566,-1.78 4.938,-4.259 0.409,-2.731 -1.472,-5.277 -4.203,-5.686 z" />
    <path fill="#000000" d="m 134.684,241.823 -18.112,0 c -2.761,0 -5,2.238 -5,5 0,2.762 2.239,5 5,5 l 4.057,0 0,14.442 c 0,2.762 2.239,5 5,5 2.761,0 5,-2.238 5,-5 l 0,-14.442 4.056,0 c 2.761,0 5,-2.238 5,-5 0,-2.762 -2.24,-5 -5.001,-5 z" />
  </g>
</svg>